<svg xmlns="http://www.w3.org/2000/svg" width="190" height="41" viewBox="0 0 190 41">
    <g fill-rule="evenodd">
        <path d="M118.562 3h-7.333v2.762h3.927v13.173h-3.927v2.75h11.09v-2.75h-3.757V3zm14.132 10.863h-5.527c.08-.43.203-.82.363-1.168a3.4 3.4 0 0 1 .6-.9c.237-.252.514-.444.83-.578.315-.134.662-.2 1.044-.2.428 0 .803.066 1.132.2.327.134.604.316.831.548.225.23.397.504.52.82.12.317.191.653.207 1.01v.268zm1.738-3.795a5.254 5.254 0 0 0-1.877-1.32c-.742-.312-1.582-.469-2.53-.469-.91 0-1.757.167-2.532.5a5.97 5.97 0 0 0-2.013 1.398 6.462 6.462 0 0 0-1.32 2.147c-.314.831-.47 1.75-.47 2.755v.487c0 .884.156 1.713.476 2.487.32.775.776 1.448 1.363 2.02a6.536 6.536 0 0 0 2.12 1.356c.825.332 1.743.499 2.755.499.643 0 1.246-.07 1.803-.207a7.684 7.684 0 0 0 1.524-.542 5.485 5.485 0 0 0 1.184-.766c.336-.288.61-.582.819-.882l-1.683-1.824c-.194.251-.422.47-.68.656a4.212 4.212 0 0 1-.834.469 5.053 5.053 0 0 1-1.93.383 3.72 3.72 0 0 1-1.296-.22 3.361 3.361 0 0 1-1.055-.62 3.443 3.443 0 0 1-.757-.954 3.704 3.704 0 0 1-.394-1.223h8.897v-1.435c0-.965-.133-1.847-.4-2.646-.268-.799-.656-1.482-1.17-2.05zm13.811 8.32c-.169.348-.378.663-.624.942-.247.28-.527.52-.837.718-.311.2-.65.351-1.019.456a4.206 4.206 0 0 1-1.17.158c-.735 0-1.356-.158-1.864-.474a3.73 3.73 0 0 1-1.237-1.247 5.633 5.633 0 0 1-.684-1.745 9.163 9.163 0 0 1-.212-1.959v-.255c0-.657.07-1.31.212-1.959.142-.648.37-1.23.69-1.745.32-.515.732-.933 1.243-1.253.508-.32 1.136-.48 1.877-.48a3.755 3.755 0 0 1 2.206.693c.308.219.58.478.82.778.236.3.436.633.6.998v6.374zm1.44-13.94V3h-3.59v1.448h2.15v5.863a4.768 4.768 0 0 0-1.655-1.496c-.659-.357-1.404-.536-2.234-.536-.884 0-1.647.185-2.3.554-.648.369-1.19.864-1.624 1.484a6.867 6.867 0 0 0-.976 2.14 9.748 9.748 0 0 0-.326 2.525v.255c0 .852.111 1.68.326 2.488.219.807.545 1.52.976 2.14.434.621.976 1.12 1.625 1.497.652.377 1.41.566 2.274.566.822 0 1.57-.169 2.24-.505a4.684 4.684 0 0 0 1.699-1.454l.01.268h-.035v1.447h3.592v-1.447h-2.151V4.447zm13.362 9.512h-8.3a6.34 6.34 0 0 1 .496-1.77c.243-.54.551-1.007.92-1.405a4.062 4.062 0 0 1 1.3-.93 3.897 3.897 0 0 1 1.624-.335c.622 0 1.175.122 1.659.365.486.243.895.564 1.23.961.336.397.594.853.776 1.369.182.514.28 1.043.295 1.587v.158zm.044-3.91a4.86 4.86 0 0 0-1.69-1.296c-.67-.317-1.443-.475-2.314-.475-.819 0-1.582.173-2.293.517-.71.345-1.33.817-1.852 1.417a6.737 6.737 0 0 0-1.244 2.117 7.625 7.625 0 0 0-.467 2.628v.522c.009.884.16 1.718.455 2.5.296.783.711 1.466 1.25 2.05a5.898 5.898 0 0 0 1.932 1.387c.751.34 1.582.51 2.496.51.541 0 1.055-.056 1.539-.17a6.082 6.082 0 0 0 1.338-.474c.41-.203.779-.448 1.111-.736.33-.288.619-.602.859-.943l-.92-.693a4.631 4.631 0 0 1-1.671 1.338c-.656.308-1.388.458-2.195.45a4.31 4.31 0 0 1-1.938-.432 4.7 4.7 0 0 1-1.493-1.15 5.254 5.254 0 0 1-.957-1.66 5.991 5.991 0 0 1-.35-1.977v-.28h9.816v-.887a7.844 7.844 0 0 0-.37-2.348 5.786 5.786 0 0 0-1.042-1.916zm9.352 9.664l-.074.255-.062-.255-4.557-11.191h-1.514l5.527 13.161h1.187l5.515-13.161h-1.514l-4.508 11.19zM189.6 16.72a3.456 3.456 0 0 0-1.09-1.089 7.046 7.046 0 0 0-1.594-.741 17.253 17.253 0 0 0-1.898-.505 22.383 22.383 0 0 1-1.459-.347 5.325 5.325 0 0 1-1.194-.474 2.413 2.413 0 0 1-.806-.706c-.197-.28-.293-.626-.286-1.04 0-.39.101-.727.298-1.015.197-.288.462-.528.788-.718.326-.19.698-.333 1.114-.426.418-.093.843-.14 1.28-.14.468 0 .923.06 1.363.183.44.121.834.296 1.182.522.348.228.625.51.837.846.21.337.323.716.339 1.137h1.452a3.6 3.6 0 0 0-.446-1.666 3.844 3.844 0 0 0-1.111-1.235 5.08 5.08 0 0 0-1.622-.766 7.317 7.317 0 0 0-1.994-.262c-.622 0-1.228.08-1.819.238a5.256 5.256 0 0 0-1.575.7c-.462.307-.831.684-1.114 1.13a2.776 2.776 0 0 0-.425 1.52c0 .6.139 1.106.412 1.515.274.41.644.756 1.102 1.04.462.284.988.517 1.576.7.59.182 1.2.338 1.83.468.518.105 1.007.231 1.466.377.461.146.867.327 1.218.541.351.215.628.473.831.773.203.3.302.652.302 1.058a1.773 1.773 0 0 1-.345 1.064c-.222.296-.508.54-.859.73-.353.191-.747.333-1.187.426-.44.093-.884.14-1.33.14-.434 0-.88-.043-1.332-.128a4.28 4.28 0 0 1-1.253-.438 2.933 2.933 0 0 1-.97-.833c-.264-.349-.418-.783-.467-1.302h-1.455c.024.617.187 1.168.486 1.655.298.486.695.898 1.194 1.235.495.336 1.07.594 1.72.772.65.178 1.345.268 2.077.268a8.09 8.09 0 0 0 1.911-.225 5.465 5.465 0 0 0 1.647-.682c.48-.304.87-.685 1.163-1.143.295-.458.443-.995.443-1.612 0-.6-.132-1.115-.4-1.545zm-84.406 1.168a2.483 2.483 0 0 1-.916.949c-.383.227-.87.34-1.46.34-.476 0-.888-.1-1.236-.304a2.524 2.524 0 0 1-.86-.833 3.9 3.9 0 0 1-.503-1.24 6.87 6.87 0 0 1-.164-1.54v-.255c0-.551.056-1.068.17-1.55.113-.483.284-.905.514-1.266a2.6 2.6 0 0 1 .867-.851c.348-.207.76-.31 1.236-.31.574 0 1.053.111 1.436.334.385.223.69.541.916.955v5.57zm.182-8.114a3.979 3.979 0 0 0-1.407-1.106c-.55-.26-1.207-.39-1.975-.39-.824 0-1.563.163-2.218.487a4.801 4.801 0 0 0-1.673 1.375c-.46.592-.814 1.301-1.06 2.128-.247.827-.37 1.74-.37 2.737v.256c0 .957.123 1.842.37 2.658.246.814.6 1.518 1.06 2.11a5.01 5.01 0 0 0 1.667 1.393c.65.336 1.384.505 2.2.505.694 0 1.307-.122 1.836-.365.53-.244.992-.584 1.388-1.022v.754c0 .933-.265 1.652-.794 2.159-.53.507-1.267.76-2.212.76-.63 0-1.216-.127-1.757-.383a4.48 4.48 0 0 1-1.455-1.113l-1.515 2.056c.283.365.622.679 1.018.943.396.263.816.48 1.26.65.445.17.894.296 1.346.378.452.08.877.121 1.273.121.92 0 1.763-.124 2.526-.371.764-.247 1.419-.61 1.963-1.088a4.912 4.912 0 0 0 1.274-1.764c.301-.698.455-1.492.455-2.384V8.523h-3.067l-.133 1.252zm-29.924 7.98a2.481 2.481 0 0 1-.958 1.052c-.42.256-.965.384-1.636.384-.396 0-.731-.049-1.006-.146a1.41 1.41 0 0 1-.667-.48c-.17-.224-.292-.518-.37-.883a6.705 6.705 0 0 1-.114-1.35v-7.81h-3.37v7.786c0 .997.111 1.85.334 2.56.222.71.535 1.294.939 1.752.404.458.889.792 1.454 1.004a5.31 5.31 0 0 0 1.867.316c.743 0 1.428-.187 2.054-.56a5.063 5.063 0 0 0 1.606-1.545l.194 1.85h3.054V8.522h-3.381v9.232zm17.107-8.253a3.556 3.556 0 0 0-1.424-.93 5.415 5.415 0 0 0-1.818-.293c-.816 0-1.56.18-2.23.542-.67.36-1.24.87-1.71 1.526l-.205-1.824h-3.054v13.161h3.38V12.33c.251-.405.579-.724.983-.955.404-.231.893-.346 1.466-.346.388 0 .735.038 1.043.115.306.077.569.213.787.407.218.195.386.46.503.797.117.337.176.765.176 1.284v8.052h3.37v-8.1c0-.958-.112-1.771-.334-2.44-.222-.669-.533-1.216-.933-1.642zm-35.541 1.782h3.308v10.704c0 .422-.06.773-.181 1.053-.121.28-.285.504-.49.675-.207.17-.454.291-.74.365-.287.073-.592.109-.915.109a13.029 13.029 0 0 1-1.424-.08 3.326 3.326 0 0 1-.407-.066L56 26.794c.34.08.695.135 1.066.163.372.029.74.043 1.103.043.881 0 1.665-.097 2.351-.292.687-.194 1.27-.497 1.746-.906.476-.41.84-.929 1.09-1.557.25-.629.376-1.381.376-2.257V8.523h-6.714v2.76zM64 5a2 2 0 1 1-4 0 2 2 0 0 1 4 0M13.194 29.644c.46 0 .903.243 1.142.664.033.058 3.298 5.715 8.164 7.95 4.867-2.235 8.131-7.892 8.165-7.951a1.315 1.315 0 0 1 1.628-.57l3.206 1.28c1.352-2.863 1.356-8.346 1.223-10.417a1.309 1.309 0 0 1 1.114-1.376l4.39-.657c-.582-4.145-1.589-7.537-2.997-10.095-1.255-2.279-2.841-3.912-4.715-4.856-5.225-2.629-11.33.794-11.391.829a1.318 1.318 0 0 1-1.312-.002c-.058-.034-6.129-3.448-11.329-.835-1.872.94-3.456 2.572-4.71 4.851-1.408 2.56-2.415 5.956-2.998 10.108l4.39.657c.674.1 1.158.699 1.114 1.376-.133 2.07-.128 7.554 1.223 10.416l3.207-1.278c.159-.064.323-.094.486-.094zM22.53 41h-.062c-.265 0-.514-.08-.723-.216-4.551-1.943-7.797-6.265-9.085-8.214l-3.224 1.286c-.55.22-1.18.044-1.535-.429-2.25-2.99-2.36-9.123-2.292-11.793l-4.493-.672A1.308 1.308 0 0 1 .009 19.52C1.122 9.94 4.255 3.797 9.322 1.264 14.738-1.443 20.54.898 22.47 1.84c1.937-.941 7.77-3.288 13.206-.565 5.07 2.539 8.204 8.678 9.315 18.246.081.7-.408 1.337-1.107 1.442l-4.494.672c.069 2.67-.041 8.803-2.291 11.793a1.313 1.313 0 0 1-1.536.429L32.34 32.57c-1.288 1.949-4.533 6.27-9.084 8.214a1.313 1.313 0 0 1-.724.216z"/>
        <path d="M16.963 11.664a.14.14 0 0 0-.124.078l-1.19 2.284c-.228.438-.2.986.07 1.396l3.132 4.744c.151.228.23.501.229.78 0 .029-.019 2.963.492 5.118.167.705.773 1.213 1.472 1.235l1.164.037 1.764-.047c.682-.018 1.272-.496 1.467-1.19.609-2.172.735-5.191.736-5.221.01-.24.08-.473.203-.673l2.921-4.766c.252-.41.27-.93.046-1.359l-1.218-2.338a.14.14 0 0 0-.123-.078H16.963zM22.205 30h-.038l-1.198-.038c-1.809-.058-3.379-1.392-3.818-3.246-.47-1.977-.553-4.382-.567-5.357l-2.907-4.403c-.819-1.24-.902-2.898-.211-4.224l1.19-2.284C15.12 9.555 16.005 9 16.963 9h11.04c.958 0 1.842.555 2.308 1.448l1.218 2.339a4.196 4.196 0 0 1-.14 4.11l-2.737 4.467c-.056.943-.25 3.467-.82 5.498-.506 1.802-2.032 3.043-3.798 3.09L22.236 30h-.031z"/>
    </g>
</svg>
